<svg xmlns="http://www.w3.org/2000/svg" width="560" height="200" viewBox="0 0 560 200" role="img" aria-label="328,385,113 tokens burnt">
<style>
.num{font:700 56px ui-monospace,'Cascadia Code',Menlo,Consolas,monospace;fill:#ffd166}
.comma{fill:#8b6a2b}
.label{font:600 15px -apple-system,'Segoe UI',sans-serif;fill:#e8883a;letter-spacing:4px}
.sub{font:400 12px -apple-system,'Segoe UI',sans-serif;fill:#6e5a3a}
</style>
<defs>
<linearGradient id="bg" x1="0" y1="0" x2="1" y2="1">
<stop offset="0" stop-color="#0d1117"/><stop offset="1" stop-color="#1c1208"/>
</linearGradient>
<linearGradient id="fg" x1="0" y1="1" x2="0" y2="0">
<stop offset="0" stop-color="#ff5a00"/><stop offset=".6" stop-color="#ff9e2c"/><stop offset="1" stop-color="#ffd166"/>
</linearGradient>
<radialGradient id="halo"><stop offset="0" stop-color="#ff7b00"/><stop offset="1" stop-color="#ff7b00" stop-opacity="0"/></radialGradient>
</defs>
<rect width="560" height="200" rx="16" fill="url(#bg)" stroke="#3a2a12"/>
<circle cx="60" cy="105" r="70" fill="url(#halo)" opacity=".35">
<animate attributeName="opacity" values=".25;.55;.25" dur="2.2s" repeatCount="indefinite"/>
</circle>
<g transform="translate(60,128)"><g>
<animateTransform attributeName="transform" type="scale" values="1 1;.95 1.1;1 1" dur="1.6s" repeatCount="indefinite" additive="sum" calcMode="spline" keySplines=".4 0 .6 1;.4 0 .6 1"/>
<path d="M0 -80c4 16 22 24 22 46a22 22 0 1 1-44 0c0-10 5-16 10-22 1 8 3 11 7 14-2-14 1-26 5-38z" fill="url(#fg)"/>
<path d="M0 -42c2 8 10 12 10 22a10 10 0 1 1-20 0c0-9 7-13 10-22z" fill="#fff3c4">
<animateTransform attributeName="transform" type="scale" values="1 1;1.06 .92;1 1" dur="1.1s" repeatCount="indefinite" additive="sum" calcMode="spline" keySplines=".4 0 .6 1;.4 0 .6 1"/>
</path>
</g></g>
<text x="150" y="62" class="label">TOKENS BURNT</text>
<svg x="150" y="84" width="34" height="64" viewBox="0 0 34 64"><g transform="translate(0,-192)"><g><animateTransform attributeName="transform" type="translate" values="0 192;0 192;0 0" keyTimes="0;0.000;1" dur="1.11s" begin="0s" fill="freeze" additive="sum" calcMode="spline" keySplines="0 0 1 1;.2 .7 .3 1"/><text x="17" y="50" class="num" text-anchor="middle">0</text><text x="17" y="114" class="num" text-anchor="middle">1</text><text x="17" y="178" class="num" text-anchor="middle">2</text><text x="17" y="242" class="num" text-anchor="middle">3</text><text x="17" y="306" class="num" text-anchor="middle">4</text><text x="17" y="370" class="num" text-anchor="middle">5</text><text x="17" y="434" class="num" text-anchor="middle">6</text><text x="17" y="498" class="num" text-anchor="middle">7</text><text x="17" y="562" class="num" text-anchor="middle">8</text><text x="17" y="626" class="num" text-anchor="middle">9</text></g></g></svg><svg x="184" y="84" width="34" height="64" viewBox="0 0 34 64"><g transform="translate(0,-128)"><g><animateTransform attributeName="transform" type="translate" values="0 128;0 128;0 0" keyTimes="0;0.103;1" dur="1.16s" begin="0s" fill="freeze" additive="sum" calcMode="spline" keySplines="0 0 1 1;.2 .7 .3 1"/><text x="17" y="50" class="num" text-anchor="middle">0</text><text x="17" y="114" class="num" text-anchor="middle">1</text><text x="17" y="178" class="num" text-anchor="middle">2</text><text x="17" y="242" class="num" text-anchor="middle">3</text><text x="17" y="306" class="num" text-anchor="middle">4</text><text x="17" y="370" class="num" text-anchor="middle">5</text><text x="17" y="434" class="num" text-anchor="middle">6</text><text x="17" y="498" class="num" text-anchor="middle">7</text><text x="17" y="562" class="num" text-anchor="middle">8</text><text x="17" y="626" class="num" text-anchor="middle">9</text></g></g></svg><svg x="218" y="84" width="34" height="64" viewBox="0 0 34 64"><g transform="translate(0,-512)"><g><animateTransform attributeName="transform" type="translate" values="0 512;0 512;0 0" keyTimes="0;0.141;1" dur="1.70s" begin="0s" fill="freeze" additive="sum" calcMode="spline" keySplines="0 0 1 1;.2 .7 .3 1"/><text x="17" y="50" class="num" text-anchor="middle">0</text><text x="17" y="114" class="num" text-anchor="middle">1</text><text x="17" y="178" class="num" text-anchor="middle">2</text><text x="17" y="242" class="num" text-anchor="middle">3</text><text x="17" y="306" class="num" text-anchor="middle">4</text><text x="17" y="370" class="num" text-anchor="middle">5</text><text x="17" y="434" class="num" text-anchor="middle">6</text><text x="17" y="498" class="num" text-anchor="middle">7</text><text x="17" y="562" class="num" text-anchor="middle">8</text><text x="17" y="626" class="num" text-anchor="middle">9</text></g></g></svg><text x="261" y="134" class="num comma" text-anchor="middle">,</text><svg x="270" y="84" width="34" height="64" viewBox="0 0 34 64"><g transform="translate(0,-192)"><g><animateTransform attributeName="transform" type="translate" values="0 192;0 192;0 0" keyTimes="0;0.302;1" dur="1.59s" begin="0s" fill="freeze" additive="sum" calcMode="spline" keySplines="0 0 1 1;.2 .7 .3 1"/><text x="17" y="50" class="num" text-anchor="middle">0</text><text x="17" y="114" class="num" text-anchor="middle">1</text><text x="17" y="178" class="num" text-anchor="middle">2</text><text x="17" y="242" class="num" text-anchor="middle">3</text><text x="17" y="306" class="num" text-anchor="middle">4</text><text x="17" y="370" class="num" text-anchor="middle">5</text><text x="17" y="434" class="num" text-anchor="middle">6</text><text x="17" y="498" class="num" text-anchor="middle">7</text><text x="17" y="562" class="num" text-anchor="middle">8</text><text x="17" y="626" class="num" text-anchor="middle">9</text></g></g></svg><svg x="304" y="84" width="34" height="64" viewBox="0 0 34 64"><g transform="translate(0,-512)"><g><animateTransform attributeName="transform" type="translate" values="0 512;0 512;0 0" keyTimes="0;0.291;1" dur="2.06s" begin="0s" fill="freeze" additive="sum" calcMode="spline" keySplines="0 0 1 1;.2 .7 .3 1"/><text x="17" y="50" class="num" text-anchor="middle">0</text><text x="17" y="114" class="num" text-anchor="middle">1</text><text x="17" y="178" class="num" text-anchor="middle">2</text><text x="17" y="242" class="num" text-anchor="middle">3</text><text x="17" y="306" class="num" text-anchor="middle">4</text><text x="17" y="370" class="num" text-anchor="middle">5</text><text x="17" y="434" class="num" text-anchor="middle">6</text><text x="17" y="498" class="num" text-anchor="middle">7</text><text x="17" y="562" class="num" text-anchor="middle">8</text><text x="17" y="626" class="num" text-anchor="middle">9</text></g></g></svg><svg x="338" y="84" width="34" height="64" viewBox="0 0 34 64"><g transform="translate(0,-320)"><g><animateTransform attributeName="transform" type="translate" values="0 320;0 320;0 0" keyTimes="0;0.365;1" dur="1.97s" begin="0s" fill="freeze" additive="sum" calcMode="spline" keySplines="0 0 1 1;.2 .7 .3 1"/><text x="17" y="50" class="num" text-anchor="middle">0</text><text x="17" y="114" class="num" text-anchor="middle">1</text><text x="17" y="178" class="num" text-anchor="middle">2</text><text x="17" y="242" class="num" text-anchor="middle">3</text><text x="17" y="306" class="num" text-anchor="middle">4</text><text x="17" y="370" class="num" text-anchor="middle">5</text><text x="17" y="434" class="num" text-anchor="middle">6</text><text x="17" y="498" class="num" text-anchor="middle">7</text><text x="17" y="562" class="num" text-anchor="middle">8</text><text x="17" y="626" class="num" text-anchor="middle">9</text></g></g></svg><text x="381" y="134" class="num comma" text-anchor="middle">,</text><svg x="390" y="84" width="34" height="64" viewBox="0 0 34 64"><g transform="translate(0,-64)"><g><animateTransform attributeName="transform" type="translate" values="0 64;0 64;0 0" keyTimes="0;0.497;1" dur="1.93s" begin="0s" fill="freeze" additive="sum" calcMode="spline" keySplines="0 0 1 1;.2 .7 .3 1"/><text x="17" y="50" class="num" text-anchor="middle">0</text><text x="17" y="114" class="num" text-anchor="middle">1</text><text x="17" y="178" class="num" text-anchor="middle">2</text><text x="17" y="242" class="num" text-anchor="middle">3</text><text x="17" y="306" class="num" text-anchor="middle">4</text><text x="17" y="370" class="num" text-anchor="middle">5</text><text x="17" y="434" class="num" text-anchor="middle">6</text><text x="17" y="498" class="num" text-anchor="middle">7</text><text x="17" y="562" class="num" text-anchor="middle">8</text><text x="17" y="626" class="num" text-anchor="middle">9</text></g></g></svg><svg x="424" y="84" width="34" height="64" viewBox="0 0 34 64"><g transform="translate(0,-64)"><g><animateTransform attributeName="transform" type="translate" values="0 64;0 64;0 0" keyTimes="0;0.527;1" dur="2.05s" begin="0s" fill="freeze" additive="sum" calcMode="spline" keySplines="0 0 1 1;.2 .7 .3 1"/><text x="17" y="50" class="num" text-anchor="middle">0</text><text x="17" y="114" class="num" text-anchor="middle">1</text><text x="17" y="178" class="num" text-anchor="middle">2</text><text x="17" y="242" class="num" text-anchor="middle">3</text><text x="17" y="306" class="num" text-anchor="middle">4</text><text x="17" y="370" class="num" text-anchor="middle">5</text><text x="17" y="434" class="num" text-anchor="middle">6</text><text x="17" y="498" class="num" text-anchor="middle">7</text><text x="17" y="562" class="num" text-anchor="middle">8</text><text x="17" y="626" class="num" text-anchor="middle">9</text></g></g></svg><svg x="458" y="84" width="34" height="64" viewBox="0 0 34 64"><g transform="translate(0,-192)"><g><animateTransform attributeName="transform" type="translate" values="0 192;0 192;0 0" keyTimes="0;0.519;1" dur="2.31s" begin="0s" fill="freeze" additive="sum" calcMode="spline" keySplines="0 0 1 1;.2 .7 .3 1"/><text x="17" y="50" class="num" text-anchor="middle">0</text><text x="17" y="114" class="num" text-anchor="middle">1</text><text x="17" y="178" class="num" text-anchor="middle">2</text><text x="17" y="242" class="num" text-anchor="middle">3</text><text x="17" y="306" class="num" text-anchor="middle">4</text><text x="17" y="370" class="num" text-anchor="middle">5</text><text x="17" y="434" class="num" text-anchor="middle">6</text><text x="17" y="498" class="num" text-anchor="middle">7</text><text x="17" y="562" class="num" text-anchor="middle">8</text><text x="17" y="626" class="num" text-anchor="middle">9</text></g></g></svg>
<text x="150" y="172" class="sub">by the autonomous night shift · updated nightly · as of 2026-07-24</text>
</svg>