<svg xmlns="http://www.w3.org/2000/svg" width="560" height="200" viewBox="0 0 560 200" role="img" aria-label="73,605,974 tokens burnt">
<style>
.num{font:700 56px ui-monospace,'Cascadia Code',Menlo,monospace;fill:#ffd166}
.comma{fill:#8b6a2b}
.label{font:600 15px -apple-system,'Segoe UI',sans-serif;fill:#e8883a;letter-spacing:4px}
.sub{font:400 12px -apple-system,'Segoe UI',sans-serif;fill:#6e5a3a}
.flame{transform-origin:60px 128px;animation:fl 1.6s ease-in-out infinite}
.flame2{transform-origin:60px 124px;animation:fl 1.1s ease-in-out .4s infinite}
@keyframes fl{0%,100%{transform:scaleY(1) scaleX(1)}50%{transform:scaleY(1.12) scaleX(.94)}}
.glow{animation:gl 2.2s ease-in-out infinite}
@keyframes gl{0%,100%{opacity:.25}50%{opacity:.55}}
@keyframes r0{from{transform:translateY(0)}to{transform:translateY(-448px)}}.c0{animation:r0 1.46s cubic-bezier(.2,.7,.3,1) 0.00s forwards}@keyframes r1{from{transform:translateY(0)}to{transform:translateY(-192px)}}.c1{animation:r1 1.14s cubic-bezier(.2,.7,.3,1) 0.15s forwards}@keyframes r3{from{transform:translateY(0)}to{transform:translateY(-384px)}}.c3{animation:r3 1.38s cubic-bezier(.2,.7,.3,1) 0.45s forwards}@keyframes r4{from{transform:translateY(0)}to{transform:translateY(0px)}}.c4{animation:r4 0.90s cubic-bezier(.2,.7,.3,1) 0.60s forwards}@keyframes r5{from{transform:translateY(0)}to{transform:translateY(-320px)}}.c5{animation:r5 1.30s cubic-bezier(.2,.7,.3,1) 0.75s forwards}@keyframes r7{from{transform:translateY(0)}to{transform:translateY(-576px)}}.c7{animation:r7 1.62s cubic-bezier(.2,.7,.3,1) 1.05s forwards}@keyframes r8{from{transform:translateY(0)}to{transform:translateY(-448px)}}.c8{animation:r8 1.46s cubic-bezier(.2,.7,.3,1) 1.20s forwards}@keyframes r9{from{transform:translateY(0)}to{transform:translateY(-256px)}}.c9{animation:r9 1.22s cubic-bezier(.2,.7,.3,1) 1.35s forwards}
</style>
<defs>
<clipPath id="w"><rect x="0" y="84" width="560" height="64"/></clipPath>
<linearGradient id="bg" x1="0" y1="0" x2="1" y2="1">
<stop offset="0" stop-color="#0d1117"/><stop offset="1" stop-color="#1c1208"/>
</linearGradient>
<linearGradient id="fg" x1="0" y1="1" x2="0" y2="0">
<stop offset="0" stop-color="#ff5a00"/><stop offset=".6" stop-color="#ff9e2c"/><stop offset="1" stop-color="#ffd166"/>
</linearGradient>
<radialGradient id="halo"><stop offset="0" stop-color="#ff7b00"/><stop offset="1" stop-color="#ff7b00" stop-opacity="0"/></radialGradient>
</defs>
<rect width="560" height="200" rx="16" fill="url(#bg)" stroke="#3a2a12"/>
<circle class="glow" cx="60" cy="105" r="70" fill="url(#halo)"/>
<g class="flame"><path d="M60 48c4 16 22 24 22 46a22 22 0 1 1-44 0c0-10 5-16 10-22 1 8 3 11 7 14-2-14 1-26 5-38z" fill="url(#fg)"/></g>
<g class="flame2"><path d="M60 86c2 8 10 12 10 22a10 10 0 1 1-20 0c0-9 7-13 10-22z" fill="#fff3c4"/></g>
<text x="150" y="62" class="label">TOKENS BURNT</text>
<g class="c0" clip-path="url(#w)"><text x="150" y="132" class="num">0</text><text x="150" y="196" class="num">1</text><text x="150" y="260" class="num">2</text><text x="150" y="324" class="num">3</text><text x="150" y="388" class="num">4</text><text x="150" y="452" class="num">5</text><text x="150" y="516" class="num">6</text><text x="150" y="580" class="num">7</text><text x="150" y="644" class="num">8</text><text x="150" y="708" class="num">9</text></g><g class="c1" clip-path="url(#w)"><text x="184" y="132" class="num">0</text><text x="184" y="196" class="num">1</text><text x="184" y="260" class="num">2</text><text x="184" y="324" class="num">3</text><text x="184" y="388" class="num">4</text><text x="184" y="452" class="num">5</text><text x="184" y="516" class="num">6</text><text x="184" y="580" class="num">7</text><text x="184" y="644" class="num">8</text><text x="184" y="708" class="num">9</text></g><text x="218" y="132" class="num comma">,</text><g class="c3" clip-path="url(#w)"><text x="234" y="132" class="num">0</text><text x="234" y="196" class="num">1</text><text x="234" y="260" class="num">2</text><text x="234" y="324" class="num">3</text><text x="234" y="388" class="num">4</text><text x="234" y="452" class="num">5</text><text x="234" y="516" class="num">6</text><text x="234" y="580" class="num">7</text><text x="234" y="644" class="num">8</text><text x="234" y="708" class="num">9</text></g><g class="c4" clip-path="url(#w)"><text x="268" y="132" class="num">0</text><text x="268" y="196" class="num">1</text><text x="268" y="260" class="num">2</text><text x="268" y="324" class="num">3</text><text x="268" y="388" class="num">4</text><text x="268" y="452" class="num">5</text><text x="268" y="516" class="num">6</text><text x="268" y="580" class="num">7</text><text x="268" y="644" class="num">8</text><text x="268" y="708" class="num">9</text></g><g class="c5" clip-path="url(#w)"><text x="302" y="132" class="num">0</text><text x="302" y="196" class="num">1</text><text x="302" y="260" class="num">2</text><text x="302" y="324" class="num">3</text><text x="302" y="388" class="num">4</text><text x="302" y="452" class="num">5</text><text x="302" y="516" class="num">6</text><text x="302" y="580" class="num">7</text><text x="302" y="644" class="num">8</text><text x="302" y="708" class="num">9</text></g><text x="336" y="132" class="num comma">,</text><g class="c7" clip-path="url(#w)"><text x="352" y="132" class="num">0</text><text x="352" y="196" class="num">1</text><text x="352" y="260" class="num">2</text><text x="352" y="324" class="num">3</text><text x="352" y="388" class="num">4</text><text x="352" y="452" class="num">5</text><text x="352" y="516" class="num">6</text><text x="352" y="580" class="num">7</text><text x="352" y="644" class="num">8</text><text x="352" y="708" class="num">9</text></g><g class="c8" clip-path="url(#w)"><text x="386" y="132" class="num">0</text><text x="386" y="196" class="num">1</text><text x="386" y="260" class="num">2</text><text x="386" y="324" class="num">3</text><text x="386" y="388" class="num">4</text><text x="386" y="452" class="num">5</text><text x="386" y="516" class="num">6</text><text x="386" y="580" class="num">7</text><text x="386" y="644" class="num">8</text><text x="386" y="708" class="num">9</text></g><g class="c9" clip-path="url(#w)"><text x="420" y="132" class="num">0</text><text x="420" y="196" class="num">1</text><text x="420" y="260" class="num">2</text><text x="420" y="324" class="num">3</text><text x="420" y="388" class="num">4</text><text x="420" y="452" class="num">5</text><text x="420" y="516" class="num">6</text><text x="420" y="580" class="num">7</text><text x="420" y="644" class="num">8</text><text x="420" y="708" class="num">9</text></g>
<text x="150" y="172" class="sub">by the autonomous night shift · updated nightly · as of 2026-07-20</text>
</svg>